<?xml version="1.0" encoding="utf-8"?>
<!-- Generator: Adobe Illustrator 28.0.0, SVG Export Plug-In . SVG Version: 6.00 Build 0)  -->
<svg version="1.1" id="Слой_1" xmlns="http://www.w3.org/2000/svg" xmlns:xlink="http://www.w3.org/1999/xlink" x="0px" y="0px"
	 viewBox="0 0 429 77.7" style="enable-background:new 0 0 429 77.7;" xml:space="preserve">
<style type="text/css">
	.st0{fill:url(#SVGID_1_);}
	.st1{fill:#FFFFFF;stroke:#FFFFFF;stroke-miterlimit:10;}
	.st2{fill:#FFFFFF;stroke:#FFFFFF;stroke-width:0.5121;stroke-linecap:round;stroke-linejoin:round;stroke-miterlimit:4.0972;}
	.st3{fill:#FFDE5A;}
</style>
<g id="SvgjsG2961" transform="matrix(0.8964552989075277,0,0,0.8964552989075277,-0.33079202111301603,-11.317747293781144)">
	<g>
		
			<linearGradient id="SVGID_1_" gradientUnits="userSpaceOnUse" x1="-211.7708" y1="-45.6095" x2="-210.7708" y2="-45.6095" gradientTransform="matrix(92.4851 0 0 69.6482 19586.0312 3232.5693)">
			<stop  offset="0" style="stop-color:#FBFA14"/>
			<stop  offset="0.2187" style="stop-color:#F9F916"/>
			<stop  offset="0.2974" style="stop-color:#F2F41C"/>
			<stop  offset="0.3536" style="stop-color:#E7EC28"/>
			<stop  offset="0.399" style="stop-color:#D6E139"/>
			<stop  offset="0.4379" style="stop-color:#C0D24E"/>
			<stop  offset="0.4724" style="stop-color:#A4C069"/>
			<stop  offset="0.5035" style="stop-color:#84AA89"/>
			<stop  offset="0.5321" style="stop-color:#5E91AD"/>
			<stop  offset="0.5576" style="stop-color:#3575D6"/>
			<stop  offset="0.5767" style="stop-color:#115DF9"/>
		</linearGradient>
		<path class="st0" d="M28.8,99.3l-1.5-5.5l10-2.7l2.2,8.2h5.2l-0.2-0.7l46.3-12.4l3.5,13.1h5.2l-2-7.6l10-2.7l2.8,10.3h5.2
			L92.2,12.6H87l1.2,4.5l-10,2.7l-1.9-7.2h-5.2l0.6,2.4L25.5,27.4l-4-14.8h-5.2l1.8,6.7L8.1,22l-2.5-9.4H0.4l23.2,86.7L28.8,99.3
			L28.8,99.3z M25.8,88l-2.9-10.7l10-2.7l2.9,10.7L25.8,88z M105.9,83.1l-10,2.7L93,75.1l10-2.7L105.9,83.1z M101.5,66.6l-10,2.7
			l-2.9-10.7l10-2.7L101.5,66.6z M97.1,50.1l-10,2.7l-2.9-10.7l10-2.7L97.1,50.1z M89.8,23l2.9,10.7l-10,2.7l-2.9-10.7L89.8,23z
			 M75.2,27.9l12.1,45.3L41.1,85.6L28.9,40.3L75.2,27.9z M9.6,27.8l10-2.7l2.9,10.7l-10,2.7L9.6,27.8z M14.1,44.3l10-2.7L27,52.3
			L17,55L14.1,44.3z M18.5,60.8l10-2.7l2.9,10.7l-10,2.7L18.5,60.8z"/>
	</g>
</g>
<g id="SvgjsG2962" transform="matrix(1.0242931987318444,0,0,1.0242931987318444,106.05024060727561,-7.290493677402344)">
	<g id="XMLID_00000183233024422510199740000015200129315475251892_">
		<g>
			<path class="st1" d="M315.3,12.8v32.5l-27-24.3v-8.2l21.6,19.4V12.8H315.3z M314.3,43V13.8h-3.4v20.7l-1.7-1.5l-19.9-17.9v5.5
				L314.3,43z"/>
			<path class="st1" d="M283.6,18.2v21.6l-5.4,5.4V12.8L283.6,18.2z M282.6,39.3V18.6l-3.3-3.3v27.4L282.6,39.3z"/>
			<path class="st1" d="M273.4,39.8v5.4h-21.6v-0.4l5.4-5H273.4z M272.4,44.2v-3.4h-14.8l-3.7,3.4H272.4z"/>
			<path class="st1" d="M273.4,26.3v5.4h-21.6v-5.4H273.4z M272.4,30.7v-3.3h-19.6v3.3H272.4z"/>
			<path class="st1" d="M273.4,12.8v5.4h-16.2l-5.4-5.4C251.8,12.8,273.4,12.8,273.4,12.8z M272.4,17.2v-3.4h-18.2l3.4,3.4H272.4z"
				/>
			<path class="st1" d="M247.1,12.8v32.5l-27-24.3v-8.2l21.6,19.4V12.8H247.1z M246,43V13.8h-3.4v20.7L241,33l-19.9-17.9v5.5L246,43
				z"/>
			<polygon class="st1" points="246,13.8 246,43 221.1,20.5 221.1,15.1 241,33 242.7,34.5 242.7,13.8 			"/>
			<path class="st1" d="M215.3,18.2v21.6l-5.4,5.4V12.8L215.3,18.2z M214.3,39.3V18.6l-3.3-3.3v27.4L214.3,39.3z"/>
			<polygon class="st1" points="214.3,18.6 214.3,39.3 211,42.7 211,15.3 			"/>
			<path class="st1" d="M202.5,39.9l2.7,5.4h-6l-2.7-5.4H202.5z M203.6,44.2l-1.7-3.3h-3.8l1.7,3.3H203.6z"/>
			<polygon class="st1" points="201.9,40.9 203.6,44.2 199.8,44.2 198.2,40.9 			"/>
			<path class="st1" d="M189,12.8l10.8,21.7h-6.1l-4.8-9.5l-4.8,9.5l-5.4,10.8h-6L189,12.8z M198.2,33.4L189,15l-14.6,29.2h3.8
				l5.2-10.3l4.7-9.5l0.9-1.8l0.9,1.8l4.5,9H198.2z"/>
			<polygon class="st1" points="189,15 198.2,33.4 194.4,33.4 189.9,24.4 189,22.6 188.1,24.4 183.4,34 178.2,44.2 174.4,44.2 			
				"/>
			<path class="st1" d="M163.7,33.6l6.7,11.6h-6.2L154.7,29h4.9c1.5,0,2.7-0.5,3.8-1.6s1.6-2.3,1.6-3.8s-0.5-2.7-1.6-3.8
				c-1.1-1.1-2.3-1.6-3.8-1.6h-11.1l-3.2-5.4h14.2c3,0,5.5,1.1,7.6,3.2s3.2,4.7,3.2,7.6c0,2.2-0.6,4.3-1.9,6.1
				C167.2,31.5,165.6,32.8,163.7,33.6z M169.3,23.6c0-2.7-0.9-5-2.9-6.9c-1.9-1.9-4.2-2.9-6.9-2.9H147l2,3.4h10.5
				c1.7,0,3.3,0.6,4.5,1.9c1.2,1.3,1.9,2.8,1.9,4.5c0,1.8-0.6,3.3-1.9,4.5c-1.2,1.2-2.8,1.9-4.5,1.9h-3.1l8.2,14.2h3.9l-5.8-10.1
				l-0.6-1l1.1-0.4c1.7-0.7,3.2-1.9,4.3-3.5C168.8,27.5,169.3,25.6,169.3,23.6z"/>
			<path class="st1" d="M166.4,16.7c1.9,1.9,2.9,4.2,2.9,6.9c0,2.1-0.6,3.9-1.7,5.5c-1.1,1.6-2.6,2.8-4.3,3.5l-1.1,0.4l0.6,1
				l5.8,10.1h-3.9L156.5,30h3.1c1.7,0,3.3-0.6,4.5-1.9c1.2-1.2,1.9-2.8,1.9-4.5s-0.6-3.3-1.9-4.5c-1.2-1.2-2.8-1.9-4.5-1.9H149
				l-2-3.4h12.5C162.2,13.8,164.5,14.7,166.4,16.7z"/>
			<path class="st1" d="M140.5,12.8L124.3,29l16.2,16.2h-7.6L116.6,29l16.3-16.3L140.5,12.8L140.5,12.8z M123.6,28.3l14.5-14.5h-4.8
				L118,29l15.3,15.2h4.8L122.9,29L123.6,28.3z"/>
			<polygon class="st1" points="138.1,13.8 123.6,28.3 122.9,29 138.1,44.2 133.3,44.2 118,29 133.3,13.8 			"/>
			<path class="st1" d="M106.5,31.7h5.4c0,3.7-1.3,6.9-4,9.6c-2.7,2.6-5.9,3.9-9.6,3.9s-6.9-1.3-9.5-3.9c-2.6-2.7-3.9-5.9-3.9-9.6
				V12.8h5.4v18.9c0,2.2,0.8,4.1,2.3,5.7c1.6,1.6,3.5,2.4,5.8,2.4s4.1-0.8,5.7-2.4C105.6,35.8,106.5,33.9,106.5,31.7z M110.8,32.7
				h-3.4c-0.2,2.1-1.1,3.9-2.7,5.4c-1.7,1.8-3.9,2.7-6.4,2.7s-4.7-0.9-6.5-2.7c-1.7-1.7-2.6-3.9-2.6-6.4V13.8h-3.3v17.9
				c0,3.5,1.2,6.4,3.6,8.9c2.5,2.4,5.4,3.6,8.8,3.6c3.5,0,6.4-1.2,8.9-3.6C109.4,38.4,110.6,35.8,110.8,32.7z"/>
			<path class="st1" d="M107.4,32.7h3.4c-0.2,3-1.4,5.6-3.6,7.8c-2.5,2.5-5.4,3.6-8.9,3.6c-3.4,0-6.3-1.2-8.8-3.6
				c-2.5-2.5-3.6-5.4-3.6-8.9V13.8h3.3v17.9c0,2.5,0.9,4.7,2.6,6.4c1.8,1.8,4,2.7,6.5,2.7s4.7-0.9,6.4-2.7
				C106.3,36.6,107.2,34.8,107.4,32.7z"/>
			<path class="st1" d="M80.1,29c0,4.5-1.6,8.3-4.8,11.5c-3.2,3.2-7,4.8-11.5,4.8s-8.3-1.6-11.5-4.8c-3.2-3.1-4.8-7-4.8-11.5
				s1.6-8.3,4.8-11.5c3.1-3.2,6.9-4.8,11.5-4.8c4.5,0,8.3,1.6,11.5,4.8C78.5,20.7,80.1,24.6,80.1,29z M79.1,29
				c0-4.2-1.5-7.7-4.5-10.7s-6.5-4.5-10.7-4.5c-4.3,0-7.8,1.5-10.7,4.5c-3,3-4.5,6.5-4.5,10.7c0,4.3,1.5,7.8,4.5,10.7
				c3,3,6.5,4.5,10.7,4.5s7.8-1.5,10.7-4.5C77.6,36.8,79.1,33.3,79.1,29z"/>
			<path class="st1" d="M72.1,20.7c2.3,2.3,3.5,5.1,3.5,8.3s-1.2,6-3.5,8.4c-2.3,2.3-5.1,3.4-8.3,3.4c-3.2,0-6-1.2-8.4-3.4
				C53.1,35,52,32.2,52,29s1.2-6,3.4-8.3c2.3-2.3,5.2-3.5,8.4-3.5S69.8,18.4,72.1,20.7z M74.6,29c0-3-1.1-5.5-3.2-7.6
				s-4.7-3.2-7.6-3.2c-3,0-5.5,1.1-7.7,3.2C54,23.5,53,26,53,29s1,5.5,3.1,7.7c2.1,2.1,4.7,3.1,7.7,3.1c3,0,5.5-1,7.6-3.1
				C73.5,34.5,74.6,32,74.6,29z"/>
			<path class="st1" d="M52.1,12.8L26.8,45.2h-6.9L32.6,29L19.8,12.8h6.9L36,24.6l9.3-11.8H52.1z M26.3,44.2L50,13.8h-4.3l-9,11.4
				l-0.8,1l-0.8-1l-8.9-11.4h-4.3l11.4,14.6l0.5,0.6l-0.5,0.6L21.9,44.2H26.3z"/>
			<polygon class="st1" points="50,13.8 26.3,44.2 21.9,44.2 33.4,29.6 33.9,29 33.4,28.4 21.9,13.8 26.3,13.8 35.2,25.2 36,26.3 
				36.8,25.2 45.7,13.8 			"/>
		</g>
		<g>
			<polygon class="st2" points="45.2,12.8 52.1,12.8 26.8,45.2 19.8,45.2 32.6,29 19.8,12.8 26.8,12.8 36,24.6 			"/>
			<polygon class="st2" points="26.3,44.2 50,13.8 45.7,13.8 36.8,25.2 36,26.3 35.2,25.2 26.3,13.8 21.9,13.8 33.4,28.4 33.9,29 
				33.4,29.6 21.9,44.2 			"/>
			<path class="st2" d="M72.1,20.7c2.3,2.3,3.5,5.1,3.5,8.3s-1.2,6-3.5,8.4c-2.3,2.3-5.1,3.4-8.3,3.4c-3.2,0-6-1.2-8.4-3.4
				C53.1,35,52,32.2,52,29s1.2-6,3.4-8.3c2.3-2.3,5.2-3.5,8.4-3.5S69.8,18.4,72.1,20.7z"/>
			<path class="st2" d="M71.4,36.7c2.1-2.1,3.2-4.7,3.2-7.7s-1.1-5.5-3.2-7.6s-4.7-3.2-7.6-3.2c-3,0-5.5,1.1-7.7,3.2
				C54,23.5,53,26,53,29s1,5.5,3.1,7.7c2.1,2.1,4.7,3.1,7.7,3.1C66.8,39.8,69.3,38.8,71.4,36.7z"/>
			<path class="st2" d="M75.3,17.6c3.2,3.2,4.8,7,4.8,11.5s-1.6,8.3-4.8,11.5c-3.2,3.2-7,4.8-11.5,4.8s-8.3-1.6-11.5-4.8
				c-3.2-3.1-4.8-7-4.8-11.5s1.6-8.3,4.8-11.5c3.1-3.2,6.9-4.8,11.5-4.8C68.3,12.8,72.1,14.4,75.3,17.6z"/>
			<path class="st2" d="M74.5,39.8c3-3,4.5-6.5,4.5-10.7s-1.5-7.7-4.5-10.7s-6.5-4.5-10.7-4.5c-4.3,0-7.8,1.5-10.7,4.5
				c-3,3-4.5,6.5-4.5,10.7c0,4.3,1.5,7.8,4.5,10.7c3,3,6.5,4.5,10.7,4.5S71.6,42.8,74.5,39.8z"/>
			<path class="st2" d="M106.5,31.7h5.4c0,3.7-1.3,6.9-4,9.6c-2.7,2.6-5.9,3.9-9.6,3.9s-6.9-1.3-9.5-3.9c-2.6-2.7-3.9-5.9-3.9-9.6
				V12.8h5.4v18.9c0,2.2,0.8,4.1,2.3,5.7c1.6,1.6,3.5,2.4,5.8,2.4s4.1-0.8,5.7-2.4C105.6,35.8,106.5,33.9,106.5,31.7z"/>
			<path class="st2" d="M107.2,40.6c2.2-2.2,3.4-4.8,3.6-7.8h-3.4c-0.2,2.1-1.1,3.9-2.7,5.4c-1.7,1.8-3.9,2.7-6.4,2.7
				s-4.7-0.9-6.5-2.7c-1.7-1.7-2.6-3.9-2.6-6.4v-18h-3.3v17.9c0,3.5,1.2,6.4,3.6,8.9c2.5,2.4,5.4,3.6,8.8,3.6
				C101.8,44.2,104.7,43,107.2,40.6z"/>
			<polygon class="st2" points="140.5,12.8 124.3,29 140.5,45.2 132.9,45.2 116.6,29 132.9,12.8 			"/>
			<polygon class="st2" points="138.1,44.2 122.9,29 123.6,28.3 138.1,13.8 133.3,13.8 118,29 133.3,44.2 			"/>
			<path class="st2" d="M168.4,29.7c-1.2,1.8-2.8,3.1-4.8,3.9l6.7,11.6h-6.2L154.7,29h4.9c1.5,0,2.7-0.5,3.8-1.6s1.6-2.3,1.6-3.8
				s-0.5-2.7-1.6-3.8c-1.1-1.1-2.3-1.6-3.8-1.6h-11.1l-3.2-5.4h14.2c3,0,5.5,1.1,7.6,3.2s3.2,4.7,3.2,7.6
				C170.3,25.8,169.7,27.9,168.4,29.7z"/>
			<path class="st2" d="M168.6,44.2l-5.8-10.1l-0.6-1l1.1-0.4c1.7-0.7,3.2-1.9,4.3-3.5c1.2-1.7,1.7-3.5,1.7-5.5c0-2.7-0.9-5-2.9-6.9
				c-1.9-1.9-4.2-2.9-6.9-2.9H147l2,3.4h10.5c1.7,0,3.3,0.6,4.5,1.9c1.2,1.3,1.9,2.8,1.9,4.5c0,1.8-0.6,3.3-1.9,4.5
				c-1.2,1.2-2.8,1.9-4.5,1.9h-3.1l8.2,14.2L168.6,44.2L168.6,44.2z"/>
			<polygon class="st2" points="189,12.8 199.8,34.4 193.8,34.4 189,24.9 184.3,34.4 178.8,45.2 172.8,45.2 			"/>
			<polygon class="st2" points="189.9,24.4 194.4,33.4 198.2,33.4 189,15 174.4,44.2 178.2,44.2 183.4,34 188.1,24.4 189,22.6 			
				"/>
			<polygon class="st2" points="202.5,39.9 205.2,45.2 199.2,45.2 196.5,39.9 			"/>
			<polygon class="st2" points="198.2,40.9 199.8,44.2 203.6,44.2 201.9,40.9 			"/>
			<polygon class="st2" points="210,12.8 215.3,18.2 215.3,39.7 210,45.2 			"/>
			<polygon class="st2" points="214.3,39.3 214.3,18.6 211,15.3 211,42.7 			"/>
			<polygon class="st2" points="241.6,12.8 247.1,12.8 247.1,45.2 220.1,21 220.1,12.8 241.6,32.2 			"/>
			<polygon class="st2" points="246,43 246,13.8 242.7,13.8 242.7,34.5 241,33 221.1,15.1 221.1,20.5 			"/>
			<polygon class="st2" points="251.8,44.8 257.2,39.8 273.4,39.8 273.4,45.2 251.8,45.2 			"/>
			<line class="st2" x1="251.8" y1="44.8" x2="251.8" y2="44.8"/>
			<polygon class="st2" points="272.4,40.8 257.6,40.8 253.9,44.2 272.4,44.2 			"/>
			<polygon class="st2" points="251.8,12.8 273.4,12.8 273.4,18.2 257.2,18.2 			"/>
			<polygon class="st2" points="272.4,17.2 272.4,13.8 254.3,13.8 257.6,17.2 			"/>
			<rect x="251.5" y="26.3" class="st2" width="22.1" height="5.5"/>
			<rect x="252.6" y="27.3" class="st2" width="20.1" height="3.4"/>
			<polygon class="st2" points="278.2,12.8 283.6,18.2 283.6,39.7 278.2,45.2 			"/>
			<polygon class="st2" points="282.6,39.3 282.6,18.6 279.2,15.3 279.2,42.7 			"/>
			<polygon class="st2" points="309.9,12.8 315.3,12.8 315.3,45.2 288.3,21 288.3,12.8 309.9,32.2 			"/>
			<polygon class="st2" points="314.3,43 314.3,13.8 310.9,13.8 310.9,34.5 309.2,33 289.3,15.1 289.3,20.5 			"/>
		</g>
	</g>
</g>
<g id="SvgjsG2963" transform="matrix(0.5586203519545546,0,0,0.5586203519545546,108.46891111589073,50.737656792975756)">
	<path class="st3" d="M53.2,16c0.3,0,0.3,0.3,0.3,0.5l-4.2,20.7c0,0.3-0.2,0.4-0.4,0.4H47c-0.2,0-0.4-0.1-0.4-0.4l-3.8-16.3L39,37.2
		c-0.1,0.3-0.2,0.4-0.4,0.4h-1.9c-0.2,0-0.4-0.1-0.4-0.4l-4.2-20.7c-0.1-0.3,0-0.5,0.3-0.5H34c0.2,0,0.3,0.1,0.4,0.4l3.4,17.5
		l3.9-17.5c0-0.1,0.1-0.3,0.2-0.3c0,0,0.1,0,0.2,0h1.4c0.1,0,0.1,0,0.2,0c0.1,0,0.2,0.1,0.2,0.3l3.9,17.5l3.4-17.5
		c0.1-0.3,0.2-0.4,0.4-0.4C51.7,16,53.2,16,53.2,16z M68.4,34.9c0.2,0,0.3,0.1,0.3,0.4v1.7c0,0.3-0.1,0.4-0.3,0.4H58.2
		c-0.2,0-0.3-0.1-0.3-0.4V16.5c0-0.3,0.1-0.4,0.3-0.4h10.2c0.2,0,0.3,0.1,0.3,0.4v1.7c0,0.3-0.1,0.4-0.3,0.4H60V25h7.7
		c0.2,0,0.3,0.1,0.3,0.4v1.7c0,0.3-0.1,0.4-0.3,0.4H60v7.3C60,34.9,68.4,34.9,68.4,34.9z M91.9,25.9c2.4,0.7,3.4,2.9,3.4,5.4
		c0,4.2-1.9,6.2-6,6.2h-5.6c-0.2,0-0.3-0.1-0.3-0.4V16.5c0-0.3,0.1-0.4,0.3-0.4h5.7c3.7,0,4.9,2.7,4.9,5.2
		C94.4,23.4,93.6,25.3,91.9,25.9z M92.3,21.6c0-2-0.9-2.8-3-2.8h-3.6V25h3.7C91.3,24.9,92.3,23.7,92.3,21.6z M89.3,34.9
		c2.5,0,3.7-0.9,3.7-3.7c0-2.3-1-3.8-3.6-3.8h-3.7v7.6H89.3z M112.3,16c0.2,0,0.3,0.1,0.3,0.4v12.3c0,6.1-2.6,9.2-6.8,9.2
		S99,34.8,99,28.7V16.4c0-0.3,0.1-0.4,0.3-0.4h1.8c0.2,0,0.3,0.1,0.3,0.4v12.3c0,4.4,1.8,6.4,4.5,6.4c2.8,0,4.5-2.1,4.5-6.4V16.4
		c0-0.3,0.1-0.4,0.3-0.4C110.8,16,112.3,16,112.3,16z M128.5,18.6h-4.4v16.3h4.4c0.2,0,0.3,0.1,0.3,0.4v1.7c0,0.3-0.1,0.4-0.3,0.4
		h-11.1c-0.2,0-0.3-0.1-0.3-0.4v-1.7c0-0.3,0.1-0.4,0.3-0.4h4.4V18.6h-4.4c-0.2,0-0.3-0.1-0.3-0.4v-1.7c0-0.3,0.1-0.4,0.3-0.4h11.1
		c0.2,0,0.3,0.1,0.3,0.4v1.7C129,18.5,128.9,18.6,128.5,18.6z M144.2,34.9c0.2,0,0.3,0.1,0.3,0.4v1.7c0,0.3-0.1,0.4-0.3,0.4h-10.1
		c-0.2,0-0.3-0.1-0.3-0.4V16.5c0-0.3,0.1-0.4,0.3-0.4h1.5c0.2,0,0.3,0.1,0.3,0.4v18.4C136,34.9,144.2,34.9,144.2,34.9z M153.2,16
		c5.8,0,8.8,4.6,8.8,10.7s-3,10.7-8.8,10.7h-4c-0.2,0-0.3-0.1-0.3-0.4V16.5c0-0.3,0.1-0.4,0.3-0.4C149.3,16,153.2,16,153.2,16z
		 M153.2,34.9c4.3,0,6.5-3.1,6.5-8.1s-2.2-8.1-6.5-8.1H151v16.3h2.2V34.9z M190,16c0.3,0,0.4,0.3,0.2,0.5l-6.3,12.6v7.8
		c0,0.3-0.1,0.4-0.3,0.4H182c-0.2,0-0.3-0.1-0.3-0.4v-7.8l-6.3-12.6c-0.2-0.3,0-0.5,0.2-0.5h1.8c0.2,0,0.3,0.1,0.4,0.3l4.9,9.9
		l4.9-9.9c0.1-0.3,0.2-0.3,0.4-0.3C188.2,16,190,16,190,16z M202.2,38c-4.7,0-8.6-4.9-8.6-11c0-6.2,3.8-11.1,8.6-11.1
		s8.6,4.9,8.6,11.1C210.8,33.1,207,38,202.2,38z M202.2,35.2c3.5,0,6.4-3.7,6.4-8.4s-2.8-8.4-6.4-8.4s-6.4,3.7-6.4,8.4
		C195.8,31.5,198.6,35.2,202.2,35.2z M228.2,16c0.2,0,0.3,0.1,0.3,0.4v12.3c0,6.1-2.6,9.2-6.8,9.2c-4.2,0-6.8-3.1-6.8-9.2V16.4
		c0-0.3,0.1-0.4,0.3-0.4h1.5c0.2,0,0.3,0.1,0.3,0.4v12.3c0,4.4,1.8,6.4,4.5,6.4c2.8,0,4.5-2.1,4.5-6.4V16.4c0-0.3,0.1-0.4,0.3-0.4
		C226.6,16,228.2,16,228.2,16z M242,29.2l3.2,7.8c0.1,0.3,0,0.5-0.3,0.5h-1.5c-0.2,0-0.3-0.1-0.4-0.4l-3.1-7.7h-0.3h-4v7.6
		c0,0.3-0.1,0.4-0.3,0.4h-1.5c-0.2,0-0.3-0.1-0.3-0.4V16.5c0-0.3,0.1-0.4,0.3-0.4h6c4.4,0,6,2.4,6,6.8
		C245.5,26.2,244.5,28.5,242,29.2L242,29.2z M235.4,18.6v8.2h4.2c2.3,0,3.7-0.8,3.7-4.1s-1.4-4.1-3.7-4.1
		C239.6,18.6,235.4,18.6,235.4,18.6z M276.7,16c0.2,0,0.3,0.1,0.3,0.4v20.6c0,0.3-0.1,0.4-0.3,0.4h-1.5c-0.2,0-0.3-0.1-0.3-0.4V21.6
		l-5.2,15.7c-0.1,0.3-0.2,0.4-0.4,0.4h-1.4c-0.2,0-0.3-0.1-0.4-0.4l-5-15.7v15.5c0,0.3-0.1,0.4-0.3,0.4h-1.5c-0.2,0-0.3-0.1-0.3-0.4
		V16.5c0-0.3,0.1-0.4,0.3-0.4h1.9c0.2,0,0.3,0.1,0.4,0.3l5.8,18l5.8-18c0.1-0.3,0.2-0.3,0.4-0.3h2V16z M292.8,34.9
		c0.2,0,0.3,0.1,0.3,0.4v1.7c0,0.3-0.1,0.4-0.3,0.4h-10.2c-0.2,0-0.3-0.1-0.3-0.4V16.5c0-0.3,0.1-0.4,0.3-0.4h10.2
		c0.2,0,0.3,0.1,0.3,0.4v1.7c0,0.3-0.1,0.4-0.3,0.4h-8.3V25h7.7c0.2,0,0.3,0.1,0.3,0.4v1.7c0,0.3-0.1,0.4-0.3,0.4h-7.7v7.3
		C284.4,34.9,292.8,34.9,292.8,34.9z M302.3,16c5.8,0,8.8,4.6,8.8,10.7s-3,10.7-8.8,10.7h-4c-0.2,0-0.3-0.1-0.3-0.4V16.5
		c0-0.3,0.1-0.4,0.3-0.4C298.2,16,302.3,16,302.3,16z M302.3,34.9c4.3,0,6.5-3.1,6.5-8.1s-2.2-8.1-6.5-8.1h-2.2v16.3h2.2V34.9z
		 M326.4,18.6h-4.4v16.3h4.4c0.2,0,0.3,0.1,0.3,0.4v1.7c0,0.3-0.1,0.4-0.3,0.4h-11.1c-0.2,0-0.3-0.1-0.3-0.4v-1.7
		c0-0.3,0.1-0.4,0.3-0.4h4.4V18.6h-4.4c-0.2,0-0.3-0.1-0.3-0.4v-1.7c0-0.3,0.1-0.4,0.3-0.4h11.1c0.2,0,0.3,0.1,0.3,0.4v1.7
		C326.8,18.5,326.7,18.6,326.4,18.6z M345,37.1c0.1,0.3,0,0.5-0.3,0.5h-1.5c-0.2,0-0.3-0.1-0.4-0.4l-1.1-4.1h-7.7l-1.1,4.1
		c-0.1,0.3-0.2,0.4-0.4,0.4h-1.5c-0.3,0-0.4-0.3-0.3-0.5l6.1-20.7c0.1-0.3,0.2-0.4,0.4-0.4h1.5c0.2,0,0.3,0.1,0.4,0.4L345,37.1z
		 M334.6,30.6h6.2l-3.1-10.9L334.6,30.6z M370.3,16c0.2,0,0.3,0.1,0.3,0.4v1.7c0,0.3-0.1,0.4-0.3,0.4h-8.7v6.6h8
		c0.2,0,0.3,0.1,0.3,0.4v1.9c0,0.3-0.1,0.4-0.3,0.4h-8v9.3c0,0.3-0.1,0.4-0.3,0.4h-1.5c-0.2,0-0.3-0.1-0.3-0.4V16.5
		c0-0.3,0.1-0.4,0.3-0.4C359.8,16,370.3,16,370.3,16z M384,29.2l3.2,7.8c0.1,0.3,0,0.5-0.3,0.5h-1.5c-0.2,0-0.3-0.1-0.4-0.4
		l-3.1-7.7h-0.3h-4v7.6c0,0.3-0.1,0.4-0.3,0.4h-1.5c-0.2,0-0.3-0.1-0.3-0.4V16.5c0-0.3,0.1-0.4,0.3-0.4h6c4.4,0,6,2.4,6,6.8
		C387.5,26.2,386.5,28.5,384,29.2z M377.4,18.6v8.2h4.2c2.3,0,3.7-0.8,3.7-4.1s-1.4-4.1-3.7-4.1C381.6,18.6,377.4,18.6,377.4,18.6z
		 M402.3,34.9c0.2,0,0.3,0.1,0.3,0.4v1.7c0,0.3-0.1,0.4-0.3,0.4h-10.2c-0.2,0-0.3-0.1-0.3-0.4V16.5c0-0.3,0.1-0.4,0.3-0.4h10.2
		c0.2,0,0.3,0.1,0.3,0.4v1.7c0,0.3-0.1,0.4-0.3,0.4H394V25h7.7c0.2,0,0.3,0.1,0.3,0.4v1.7c0,0.3-0.1,0.4-0.3,0.4H394v7.3h8.3V34.9z
		 M418,34.9c0.2,0,0.3,0.1,0.3,0.4v1.7c0,0.3-0.1,0.4-0.3,0.4h-10.2c-0.2,0-0.3-0.1-0.3-0.4V16.5c0-0.3,0.1-0.4,0.3-0.4H418
		c0.2,0,0.3,0.1,0.3,0.4v1.7c0,0.3-0.1,0.4-0.3,0.4h-8.3V25h7.7c0.2,0,0.3,0.1,0.3,0.4v1.7c0,0.3-0.1,0.4-0.3,0.4h-7.7v7.3h8.3V34.9
		z M427.3,16c5.8,0,8.8,4.6,8.8,10.7s-3,10.7-8.8,10.7h-4c-0.2,0-0.3-0.1-0.3-0.4V16.5c0-0.3,0.1-0.4,0.3-0.4
		C423.3,16,427.3,16,427.3,16z M427.3,34.9c4.3,0,6.5-3.1,6.5-8.1s-2.2-8.1-6.5-8.1h-2.2v16.3h2.2V34.9z M448.5,38
		c-4.7,0-8.6-4.9-8.6-11c0-6.2,3.8-11.1,8.6-11.1c4.7,0,8.6,4.9,8.6,11.1C457,33.1,453.1,38,448.5,38z M448.5,35.2
		c3.5,0,6.4-3.7,6.4-8.4s-2.8-8.4-6.4-8.4s-6.4,3.7-6.4,8.4C442.1,31.5,444.9,35.2,448.5,35.2z M478.2,16c0.2,0,0.3,0.1,0.3,0.4
		v20.6c0,0.3-0.1,0.4-0.3,0.4h-1.5c-0.2,0-0.3-0.1-0.3-0.4V21.6l-5.2,15.7c-0.1,0.3-0.2,0.4-0.4,0.4h-1.4c-0.2,0-0.3-0.1-0.4-0.4
		l-5-15.7v15.5c0,0.3-0.1,0.4-0.3,0.4h-1.5c-0.2,0-0.3-0.1-0.3-0.4V16.5c0-0.3,0.1-0.4,0.3-0.4h1.9c0.2,0,0.3,0.1,0.4,0.3l5.8,18
		l5.8-18c0.1-0.3,0.2-0.3,0.4-0.3h2V16z"/>
</g>
</svg>
