<svg width="428.99999999999994" height="77.69289716444288" viewBox="0 0 370.0169491525424 67.010929556199" class="looka-1j8o68f"><defs id="SvgjsDefs2960"><linearGradient id="SvgjsLinearGradient2967"><stop id="SvgjsStop2968" stop-color="#fbb040" offset="0"></stop><stop id="SvgjsStop2969" stop-color="#f9ed32" offset="1"></stop></linearGradient></defs><g id="SvgjsG2961" featurekey="symbolFeature-0" transform="matrix(0.8964552989075277,0,0,0.8964552989075277,-0.33079202111301603,-11.317747293781144)" fill="url(#SvgjsLinearGradient2967)"><g xmlns="http://www.w3.org/2000/svg"><path d="M24.883,87.375l-1.269-4.736l8.647-2.316l1.89,7.053h4.485l-0.172-0.642l39.892-10.689l3.036,11.331h4.484L84.11,80.78   l8.647-2.316l2.389,8.911h4.484l-20.03-74.75h-4.484l1.048,3.91l-8.648,2.317l-1.668-6.227h-4.484l0.548,2.047L22.019,25.361   l-3.412-12.736h-4.484l1.545,5.768l-8.647,2.317l-2.167-8.084H0.369l20.029,74.75H24.883z M22.269,77.618l-2.467-9.206l8.648-2.316   l2.466,9.205L22.269,77.618z M91.412,73.443l-8.646,2.316l-2.468-9.206l8.648-2.318L91.412,73.443z M87.601,59.217l-8.647,2.316   l-2.467-9.207l8.647-2.316L87.601,59.217z M83.788,44.989l-8.646,2.317L72.674,38.1l8.648-2.317L83.788,44.989z M77.51,21.555   l2.466,9.206l-8.647,2.317l-2.467-9.206L77.51,21.555z M64.901,25.831l10.465,39.055L35.474,75.573L25.009,36.52L64.901,25.831z    M8.366,25.731l8.647-2.317l2.467,9.206l-8.648,2.317L8.366,25.731z M12.177,39.958l8.648-2.317l2.467,9.207l-8.647,2.317   L12.177,39.958z M15.99,54.186l8.647-2.318l2.467,9.207l-8.648,2.316L15.99,54.186z"></path></g></g><g id="SvgjsG2962" featurekey="nameFeature-0" transform="matrix(1.0242931987318444,0,0,1.0242931987318444,106.05024060727561,-7.290493677402344)" fill="#ffffff"><path d="M24.787 11.998999999999999 l5.931 0 l-21.867 28 l-5.9712 0 l10.974 -14 l-10.974 -14 l5.9712 0 l7.9468 10.208 z M8.4248 39.12456 l20.501 -26.251 l-3.7134 0 l-7.7248 9.8716 l-0.6906 0.882 l-0.68796 -0.88376 l-7.6856 -9.87 l-3.7483 0 l9.8656 12.586 l0.42308 0.53932 l-0.42308 0.53932 l-9.8656 12.587 l3.7492 0 z M47.984 18.806 c1.9904 1.9913 2.9991 4.4116 2.9982 7.1932 c0 2.7807 -1.007 5.2136 -2.994 7.23 c-2 1.9703 -4.4188 2.9642 -7.1996 2.9642 c-2.778 0 -5.2088 -0.99216 -7.2256 -2.9502 c-1.9756 -2.035 -2.9686 -4.466 -2.9686 -7.244 c0 -2.7798 0.99392 -5.1984 2.9546 -7.1888 c2.0254 -1.9965 4.458 -3.0044 7.2396 -3.0044 c2.7841 0 5.2048 1.0096 7.1952 3.0001 z M47.366 32.6164 c1.8287 -1.8558 2.7431 -4.0604 2.7431 -6.6164 c0 -2.5542 -0.91432 -4.7456 -2.743 -6.5752 s-4.0212 -2.7439 -6.576 -2.7439 s-4.7608 0.91432 -6.6164 2.7439 c-1.8025 1.8287 -2.7038 4.02 -2.7038 6.5752 s0.90124 4.7608 2.7038 6.6164 c1.8558 1.8025 4.0604 2.7038 6.6164 2.7038 c2.5542 0 4.7468 -0.90124 6.576 -2.7038 z M50.674 16.115 c2.7702 2.744 4.1556 6.0396 4.1564 9.8848 c0 3.9004 -1.3855 7.196 -4.1556 9.8848 c-2.7177 2.744 -6.0116 4.1156 -9.8848 4.1156 s-7.1688 -1.3724 -9.8848 -4.1156 c-2.744 -2.7168 -4.1156 -6.0116 -4.1156 -9.8848 c0 -3.8462 1.3715 -7.1408 4.1156 -9.8848 c2.6897 -2.744 5.9844 -4.1156 9.8848 -4.1156 c3.8724 0 7.1672 1.3724 9.884 4.1156 z M50.054 35.2692 c2.6294 -2.5534 3.9022 -5.5812 3.903 -9.2692 c0 -3.6364 -1.2745 -6.6664 -3.8969 -9.2632 c-2.5761 -2.6014 -5.606 -3.8628 -9.2692 -3.8628 c-3.6906 0 -6.7196 1.2605 -9.2608 3.8532 c-2.6032 2.6032 -3.8655 5.6348 -3.8655 9.2728 c0 3.6644 1.2614 6.694 3.8567 9.2632 c2.5752 2.6006 5.6052 3.862 9.2696 3.862 c3.6626 0 6.6932 -1.2614 9.2632 -3.8559 z M77.58 28.34 l4.6792 -0.00097656 c0 3.2274 -1.1434 5.9852 -3.4293 8.2712 c-2.3139 2.2596 -5.07 3.389 -8.2712 3.389 c-3.174 0 -5.9172 -1.1294 -8.23 -3.389 c-2.2596 -2.313 -3.389 -5.07 -3.389 -8.2712 l0 -16.339 l4.64 0 l0 16.34 c0 1.9371 0.67224 3.5779 2.0175 4.9224 c1.3724 1.3715 3.0263 2.0577 4.9624 2.0577 c1.9371 0 3.5779 -0.6862 4.9224 -2.0577 c1.3978 -1.3715 2.098 -3.0114 2.098 -4.9224 z M78.22 35.9856 c1.9188 -1.9188 2.9512 -4.1424 3.1365 -6.7728 l-2.9467 0 c-0.18883 1.7798 -0.96508 3.3489 -2.3148 4.6724 c-1.4965 1.528 -3.3628 2.3086 -5.534 2.3086 c-2.1679 0 -4.0448 -0.77796 -5.5804 -2.3138 c-1.5088 -1.507 -2.2737 -3.3716 -2.2737 -5.5404 l0 -15.465 l-2.8917 0 l0 15.465 c0 2.9922 1.0271 5.4976 3.1399 7.66 c2.1486 2.0988 4.6416 3.1259 7.6052 3.1259 c2.9913 0 5.4964 -1.0271 7.66 -3.1399 z M106.976 12 l-14 13.999 l14 14 l-6.5753 0 l-14.07 -13.976 l14.07 -14.024 l6.5753 0 z M104.86500000000001 39.12544 l-13.125 -13.125 l0.618 -0.618 l12.507 -12.508 l-4.1041 0 l-13.192 13.148 l13.192 13.103 l4.105 0 z M131.034 26.605 c-1.076 1.5604 -2.4475 2.6765 -4.1136 3.3488 l5.7692 10.046 l-5.3664 0 l-8.1312 -14.018 l4.1776 0.018359 c1.264 0 2.3532 -0.4572 3.2684 -1.3715 c0.91348 -0.91432 1.3715 -2.0175 1.3715 -3.3086 c0 -1.264 -0.4572 -2.3541 -1.3715 -3.2684 c-0.91524 -0.91432 -2.0044 -1.3715 -3.2684 -1.3715 l-9.5736 0 l-2.7151 -4.68 l12.288 0 c2.5551 0 4.7468 0.91524 6.5752 2.744 c1.8296 1.8296 2.7439 4.0212 2.7439 6.576 c0 1.9362 -0.5516 3.6985 -1.6539 5.2852 z M131.178 39.1262 l-5.0176 -8.738 l-0.5 -0.87068 l0.93096 -0.375 c1.4974 -0.60316 2.7501 -1.6242 3.7221 -3.0342 c1.0105 -1.4528 1.5 -3.0184 1.5 -4.7884 c0 -2.3348 -0.81384 -4.284 -2.4878 -5.958 s-3.6233 -2.4878 -5.958 -2.4878 l-10.77 0 l1.702 2.9319 l9.0701 0 c1.4974 0 2.8052 0.54808 3.8856 1.6276 c1.0804 1.0813 1.6276 2.3891 1.6276 3.8865 c0 1.5254 -0.54724 2.8462 -1.6276 3.9266 c-1.0804 1.0796 -2.3882 1.6276 -3.8864 1.6276 l-2.6565 -0.011367 l7.1136 12.263 l3.3523 0 z M148.79 12 l9.3404 18.681 l-5.2248 -0.00085936 l-4.1156 -8.23 l-4.1024 8.23 l-4.6932 9.32 l-5.2046 0 z M149.572 22.058 l3.8742 7.7468 l3.2702 0.00085936 l-7.926 -15.852 l-12.586 25.172 l3.2518 0 l4.4512 -8.8392 l4.0996 -8.2276 l0.78148 -1.5674 z M160.47 35.3612 l2.3191 4.638 l-5.2046 0 l-2.3191 -4.638 l5.2046 0 z M156.68 36.2355 l1.445 2.8899 l3.2501 0 l-1.445 -2.8899 l-3.2501 0 z M166.85999999999999 12.059999999999999 l4.64 4.6008 l0 18.6 l-4.64 4.68 l0 -27.881 z M170.6248 34.900800000000004 l0 -17.877 l-2.8917 -2.8663 l0 23.66 z M194.183 12 l4.6732 0 l0 28.001 l-23.286 -20.923 l0 -7.0779 l18.613 16.76 l0 -16.76 z M197.982 38.0397 l0 -25.166 l-2.9249 0 l0 17.849 l-1.459 -1.3138 l-17.154 -15.446 l0 4.7247 z M202.95999999999998 39.61492 l4.6392 -4.2956 l14 0 l0 4.6802 l-18.639 0 l0 -0.38461 z M220.726 36.1944 l-12.783 0 l-3.167 2.9319 l15.95 0 l0 -2.9319 z M202.95999999999998 12 l18.64 0 l0 4.6802 l-14 0 z M220.726 15.806000000000001 l0 -2.9319 l-15.668 0 l2.9065 2.9319 l12.762 0 z M202.95999999999998 28.34 l0 -4.64 l18.639 0 l0 4.64 l-18.639 0 z M203.83409999999998 24.573999999999998 l0 2.8917 l16.891 0 l0 -2.8917 l-16.891 0 z M225.70999999999998 12.059999999999999 l4.64 4.6008 l0 18.6 l-4.64 4.68 l0 -27.881 z M229.4748 34.900800000000004 l0 -17.877 l-2.8917 -2.8663 l0 23.66 z M253.033 12 l4.6732 0 l0 28.001 l-23.286 -20.923 l0 -7.0779 l18.613 16.76 l0 -16.76 z M256.832 38.0397 l0 -25.166 l-2.9249 0 l0 17.849 l-1.459 -1.3138 l-17.154 -15.446 l0 4.7247 z"></path></g><g id="SvgjsG2963" featurekey="sloganFeature-0" transform="matrix(0.5586203519545546,0,0,0.5586203519545546,108.46891111589073,50.737656792975756)" fill="#ffde5a"><path d="M18.67 6 c0.22 0 0.29 0.14 0.24 0.34 l-3.57 13.42 c-0.04 0.16 -0.2 0.24 -0.36 0.24 l-1.53 0 c-0.16 0 -0.31 -0.08 -0.36 -0.24 l-3.17 -10.57 l-3.17 10.57 c-0.05 0.16 -0.19 0.24 -0.35 0.24 l-1.54 0 c-0.16 0 -0.32 -0.08 -0.36 -0.24 l-3.53 -13.42 c-0.06 -0.21 0.02 -0.34 0.24 -0.34 l1.29 0 c0.16 0 0.3 0.06 0.34 0.24 l2.83 11.41 l3.32 -11.41 c0.03 -0.11 0.09 -0.17 0.16 -0.21 c0.04 -0.02 0.1 -0.03 0.16 -0.03 l1.23 0 c0.06 0 0.12 0.01 0.16 0.03 c0.07 0.04 0.13 0.1 0.16 0.21 l3.32 11.41 l2.86 -11.41 c0.05 -0.18 0.18 -0.24 0.34 -0.24 l1.29 0 z M31.3105 18.3 c0.18 0 0.3 0.12 0.3 0.3 l0 1.1 c0 0.18 -0.12 0.3 -0.3 0.3 l-8.55 0 c-0.18 0 -0.3 -0.12 -0.3 -0.3 l0 -13.4 c0 -0.18 0.12 -0.3 0.3 -0.3 l8.53 0 c0.18 0 0.3 0.12 0.3 0.3 l0 1.1 c0 0.18 -0.12 0.3 -0.3 0.3 l-6.96 0 l0 4.15 l6.43 0 c0.18 0 0.3 0.12 0.3 0.3 l0 1.1 c0 0.18 -0.12 0.3 -0.3 0.3 l-6.43 0 l0 4.75 l6.98 0 z M51.0315 12.440000000000001 c1.97 0.45 2.84 1.88 2.84 3.53 c0 2.77 -1.56 4.03 -4.97 4.03 l-4.63 0 c-0.18 0 -0.3 -0.12 -0.3 -0.3 l0 -13.4 c0 -0.18 0.12 -0.3 0.3 -0.3 l4.77 0 c3.13 0 4.13 1.7 4.13 3.39 c0 1.43 -0.65 2.59 -2.14 3.05 z M51.371500000000005 9.55 c0 -1.29 -0.81 -1.85 -2.5 -1.85 l-3.03 0 l0 4.05 l3.1 0 c1.63 0 2.43 -0.81 2.43 -2.2 z M48.871500000000005 18.3 c2.06 0 3.1 -0.62 3.1 -2.43 c0 -1.48 -0.88 -2.52 -3.02 -2.52 l-3.11 0 l0 4.95 l3.03 0 z M68.132 6 c0.18 0 0.3 0.12 0.3 0.3 l0 8.04 c0 3.98 -2.15 5.95 -5.67 5.95 c-3.51 0 -5.66 -1.97 -5.66 -5.95 l0 -8.04 c0 -0.18 0.12 -0.3 0.3 -0.3 l1.27 0 c0.18 0 0.3 0.12 0.3 0.3 l0 8.04 c0 2.83 1.5 4.18 3.79 4.18 c2.3 0 3.8 -1.35 3.8 -4.18 l0 -8.04 c0 -0.18 0.12 -0.3 0.3 -0.3 l1.27 0 z M81.7625 7.699999999999999 l-3.74 0 l0 10.6 l3.74 0 c0.18 0 0.3 0.12 0.3 0.3 l0 1.1 c0 0.18 -0.12 0.3 -0.3 0.3 l-9.35 0 c-0.18 0 -0.3 -0.12 -0.3 -0.3 l0 -1.1 c0 -0.18 0.12 -0.3 0.3 -0.3 l3.74 0 l0 -10.6 l-3.74 0 c-0.18 0 -0.3 -0.12 -0.3 -0.3 l0 -1.1 c0 -0.18 0.12 -0.3 0.3 -0.3 l9.35 0 c0.18 0 0.3 0.12 0.3 0.3 l0 1.1 c0 0.18 -0.12 0.3 -0.3 0.3 z M94.843 18.3 c0.18 0 0.3 0.12 0.3 0.3 l0 1.1 c0 0.18 -0.12 0.3 -0.3 0.3 l-8.45 0 c-0.18 0 -0.3 -0.12 -0.3 -0.3 l0 -13.4 c0 -0.18 0.12 -0.3 0.3 -0.3 l1.27 0 c0.18 0 0.3 0.12 0.3 0.3 l0 12 l6.88 0 z M102.37349999999999 6 c4.85 0 7.33 3.05 7.33 7 c0 3.94 -2.48 7 -7.33 7 l-3.35 0 c-0.18 0 -0.3 -0.12 -0.3 -0.3 l0 -13.4 c0 -0.18 0.12 -0.3 0.3 -0.3 l3.35 0 z M102.37349999999999 18.3 c3.63 0 5.43 -2.01 5.43 -5.3 c0 -3.3 -1.8 -5.3 -5.43 -5.3 l-1.78 0 l0 10.6 l1.78 0 z M133.10449999999997 6 c0.24 0 0.33 0.15 0.2 0.36 l-5.25 8.21 l0 5.13 c0 0.18 -0.12 0.3 -0.3 0.3 l-1.27 0 c-0.18 0 -0.3 -0.12 -0.3 -0.3 l0 -5.13 l-5.26 -8.21 c-0.13 -0.21 -0.04 -0.36 0.2 -0.36 l1.47 0 c0.16 0 0.27 0.06 0.36 0.2 l4.16 6.51 l4.16 -6.51 c0.09 -0.14 0.2 -0.2 0.36 -0.2 l1.47 0 z M143.36499999999998 20.26 c-3.96 0 -7.17 -3.2 -7.17 -7.2 c0 -4.02 3.21 -7.22 7.17 -7.22 c3.95 0 7.16 3.2 7.16 7.22 c0 4 -3.21 7.2 -7.16 7.2 z M143.36499999999998 18.49 c2.97 0 5.32 -2.4 5.32 -5.43 c0 -3.05 -2.35 -5.45 -5.32 -5.45 c-2.98 0 -5.33 2.4 -5.33 5.45 c0 3.03 2.35 5.43 5.33 5.43 z M165.08549999999997 6 c0.18 0 0.3 0.12 0.3 0.3 l0 8.04 c0 3.98 -2.15 5.95 -5.67 5.95 c-3.51 0 -5.66 -1.97 -5.66 -5.95 l0 -8.04 c0 -0.18 0.12 -0.3 0.3 -0.3 l1.27 0 c0.18 0 0.3 0.12 0.3 0.3 l0 8.04 c0 2.83 1.5 4.18 3.79 4.18 c2.3 0 3.8 -1.35 3.8 -4.18 l0 -8.04 c0 -0.18 0.12 -0.3 0.3 -0.3 l1.27 0 z M176.65599999999998 14.57 l2.68 5.08 c0.11 0.21 0.01 0.35 -0.22 0.35 l-1.32 0 c-0.16 0 -0.27 -0.07 -0.35 -0.22 l-2.58 -4.99 l-0.29 0 l-3.39 0 l0 4.91 c0 0.18 -0.12 0.3 -0.3 0.3 l-1.27 0 c-0.18 0 -0.3 -0.12 -0.3 -0.3 l0 -13.4 c0 -0.18 0.12 -0.3 0.3 -0.3 l4.96 0 c3.69 0 5.04 1.56 5.04 4.39 c0 2.22 -0.83 3.66 -2.96 4.18 z M171.18599999999998 7.699999999999999 l0 5.39 l3.52 0 c1.86 0 3.1 -0.5 3.1 -2.7 c0 -2.19 -1.24 -2.69 -3.1 -2.69 l-3.52 0 z M205.78699999999998 6 c0.18 0 0.3 0.12 0.3 0.3 l0 13.4 c0 0.18 -0.12 0.3 -0.3 0.3 l-1.27 0 c-0.18 0 -0.3 -0.12 -0.3 -0.3 l0 -10.15 l-4.29 10.22 c-0.06 0.16 -0.18 0.23 -0.34 0.23 l-1.24 0 c-0.16 0 -0.28 -0.07 -0.34 -0.23 l-4.26 -10.15 l0 10.08 c0 0.18 -0.12 0.3 -0.3 0.3 l-1.27 0 c-0.18 0 -0.3 -0.12 -0.3 -0.3 l0 -13.4 c0 -0.18 0.12 -0.3 0.3 -0.3 l1.59 0 c0.16 0 0.3 0.06 0.36 0.2 l4.85 11.69 l4.83 -11.69 c0.06 -0.14 0.2 -0.2 0.36 -0.2 l1.62 0 z M219.2175 18.3 c0.18 0 0.3 0.12 0.3 0.3 l0 1.1 c0 0.18 -0.12 0.3 -0.3 0.3 l-8.55 0 c-0.18 0 -0.3 -0.12 -0.3 -0.3 l0 -13.4 c0 -0.18 0.12 -0.3 0.3 -0.3 l8.53 0 c0.18 0 0.3 0.12 0.3 0.3 l0 1.1 c0 0.18 -0.12 0.3 -0.3 0.3 l-6.96 0 l0 4.15 l6.43 0 c0.18 0 0.3 0.12 0.3 0.3 l0 1.1 c0 0.18 -0.12 0.3 -0.3 0.3 l-6.43 0 l0 4.75 l6.98 0 z M227.09799999999998 6 c4.85 0 7.33 3.05 7.33 7 c0 3.94 -2.48 7 -7.33 7 l-3.35 0 c-0.18 0 -0.3 -0.12 -0.3 -0.3 l0 -13.4 c0 -0.18 0.12 -0.3 0.3 -0.3 l3.35 0 z M227.09799999999998 18.3 c3.63 0 5.43 -2.01 5.43 -5.3 c0 -3.3 -1.8 -5.3 -5.43 -5.3 l-1.78 0 l0 10.6 l1.78 0 z M247.3585 7.699999999999999 l-3.74 0 l0 10.6 l3.74 0 c0.18 0 0.3 0.12 0.3 0.3 l0 1.1 c0 0.18 -0.12 0.3 -0.3 0.3 l-9.35 0 c-0.18 0 -0.3 -0.12 -0.3 -0.3 l0 -1.1 c0 -0.18 0.12 -0.3 0.3 -0.3 l3.74 0 l0 -10.6 l-3.74 0 c-0.18 0 -0.3 -0.12 -0.3 -0.3 l0 -1.1 c0 -0.18 0.12 -0.3 0.3 -0.3 l9.35 0 c0.18 0 0.3 0.12 0.3 0.3 l0 1.1 c0 0.18 -0.12 0.3 -0.3 0.3 z M262.909 19.66 c0.08 0.2 -0.02 0.34 -0.24 0.34 l-1.29 0 c-0.16 0 -0.27 -0.06 -0.34 -0.24 l-0.99 -2.69 l-6.42 0 l-0.99 2.69 c-0.07 0.18 -0.18 0.24 -0.34 0.24 l-1.29 0 c-0.22 0 -0.32 -0.14 -0.24 -0.34 l5.08 -13.42 c0.06 -0.16 0.2 -0.24 0.36 -0.24 l1.26 0 c0.16 0 0.3 0.08 0.36 0.24 z M254.239 15.42 l5.2 0 l-2.6 -7.08 z M284.05 6 c0.18 0 0.3 0.12 0.3 0.3 l0 1.1 c0 0.18 -0.12 0.3 -0.3 0.3 l-7.23 0 l0 4.28 l6.77 0 c0.18 0 0.3 0.12 0.3 0.3 l0 1.1 c0 0.18 -0.12 0.3 -0.3 0.3 l-6.77 0 l0 6.02 c0 0.18 -0.12 0.3 -0.3 0.3 l-1.27 0 c-0.18 0 -0.3 -0.12 -0.3 -0.3 l0 -13.4 c0 -0.18 0.12 -0.3 0.3 -0.3 l8.8 0 z M295.5205 14.57 l2.68 5.08 c0.11 0.21 0.01 0.35 -0.22 0.35 l-1.32 0 c-0.16 0 -0.27 -0.07 -0.35 -0.22 l-2.58 -4.99 l-0.29 0 l-3.39 0 l0 4.91 c0 0.18 -0.12 0.3 -0.3 0.3 l-1.27 0 c-0.18 0 -0.3 -0.12 -0.3 -0.3 l0 -13.4 c0 -0.18 0.12 -0.3 0.3 -0.3 l4.96 0 c3.69 0 5.04 1.56 5.04 4.39 c0 2.22 -0.83 3.66 -2.96 4.18 z M290.0505 7.699999999999999 l0 5.39 l3.52 0 c1.86 0 3.1 -0.5 3.1 -2.7 c0 -2.19 -1.24 -2.69 -3.1 -2.69 l-3.52 0 z M310.911 18.3 c0.18 0 0.3 0.12 0.3 0.3 l0 1.1 c0 0.18 -0.12 0.3 -0.3 0.3 l-8.55 0 c-0.18 0 -0.3 -0.12 -0.3 -0.3 l0 -13.4 c0 -0.18 0.12 -0.3 0.3 -0.3 l8.53 0 c0.18 0 0.3 0.12 0.3 0.3 l0 1.1 c0 0.18 -0.12 0.3 -0.3 0.3 l-6.96 0 l0 4.15 l6.43 0 c0.18 0 0.3 0.12 0.3 0.3 l0 1.1 c0 0.18 -0.12 0.3 -0.3 0.3 l-6.43 0 l0 4.75 l6.98 0 z M323.99150000000003 18.3 c0.18 0 0.3 0.12 0.3 0.3 l0 1.1 c0 0.18 -0.12 0.3 -0.3 0.3 l-8.55 0 c-0.18 0 -0.3 -0.12 -0.3 -0.3 l0 -13.4 c0 -0.18 0.12 -0.3 0.3 -0.3 l8.53 0 c0.18 0 0.3 0.12 0.3 0.3 l0 1.1 c0 0.18 -0.12 0.3 -0.3 0.3 l-6.96 0 l0 4.15 l6.43 0 c0.18 0 0.3 0.12 0.3 0.3 l0 1.1 c0 0.18 -0.12 0.3 -0.3 0.3 l-6.43 0 l0 4.75 l6.98 0 z M331.87200000000007 6 c4.85 0 7.33 3.05 7.33 7 c0 3.94 -2.48 7 -7.33 7 l-3.35 0 c-0.18 0 -0.3 -0.12 -0.3 -0.3 l0 -13.4 c0 -0.18 0.12 -0.3 0.3 -0.3 l3.35 0 z M331.87200000000007 18.3 c3.63 0 5.43 -2.01 5.43 -5.3 c0 -3.3 -1.8 -5.3 -5.43 -5.3 l-1.78 0 l0 10.6 l1.78 0 z M349.50250000000005 20.26 c-3.96 0 -7.17 -3.2 -7.17 -7.2 c0 -4.02 3.21 -7.22 7.17 -7.22 c3.95 0 7.16 3.2 7.16 7.22 c0 4 -3.21 7.2 -7.16 7.2 z M349.50250000000005 18.49 c2.97 0 5.32 -2.4 5.32 -5.43 c0 -3.05 -2.35 -5.45 -5.32 -5.45 c-2.98 0 -5.33 2.4 -5.33 5.45 c0 3.03 2.35 5.43 5.33 5.43 z M374.45300000000003 6 c0.18 0 0.3 0.12 0.3 0.3 l0 13.4 c0 0.18 -0.12 0.3 -0.3 0.3 l-1.27 0 c-0.18 0 -0.3 -0.12 -0.3 -0.3 l0 -10.15 l-4.29 10.22 c-0.06 0.16 -0.18 0.23 -0.34 0.23 l-1.24 0 c-0.16 0 -0.28 -0.07 -0.34 -0.23 l-4.26 -10.15 l0 10.08 c0 0.18 -0.12 0.3 -0.3 0.3 l-1.27 0 c-0.18 0 -0.3 -0.12 -0.3 -0.3 l0 -13.4 c0 -0.18 0.12 -0.3 0.3 -0.3 l1.59 0 c0.16 0 0.3 0.06 0.36 0.2 l4.85 11.69 l4.83 -11.69 c0.06 -0.14 0.2 -0.2 0.36 -0.2 l1.62 0 z"></path></g></svg>